<svg id="svg" xmlns="http://www.w3.org/2000/svg" xmlns:xlink="http://www.w3.org/1999/xlink" width="400" height="400" viewBox="0, 0, 400,400"><g id="svgg"><path id="path0" d="M112.500 56.250 L 112.500 112.500 56.250 112.500 C -9.287 112.500,-11.577 117.799,33.589 164.941 L 67.177 200.000 33.589 235.059 C -11.577 282.201,-9.287 287.500,56.250 287.500 L 112.500 287.500 112.500 343.750 C 112.500 409.287,117.799 411.577,164.941 366.411 L 200.000 332.823 235.059 366.411 C 282.201 411.577,287.500 409.287,287.500 343.750 L 287.500 287.500 343.750 287.500 C 409.287 287.500,411.577 282.201,366.411 235.059 L 332.823 200.000 366.411 164.941 C 411.577 117.799,409.287 112.500,343.750 112.500 L 287.500 112.500 287.500 56.250 C 287.500 -9.287,282.201 -11.577,235.059 33.589 L 200.000 67.177 164.941 33.589 C 117.799 -11.577,112.500 -9.287,112.500 56.250 M185.565 137.466 C 182.245 193.724,111.059 209.251,69.087 162.872 C 39.340 130.002,102.636 124.699,138.400 157.064 C 150.767 168.257,163.165 171.537,167.371 164.731 C 171.416 158.187,166.349 145.882,156.112 137.386 C 145.876 128.890,137.500 104.881,137.500 84.032 C 137.500 46.732,137.906 46.493,162.872 69.087 C 180.839 85.346,187.462 105.305,185.565 137.466 M243.873 137.364 C 232.233 150.227,228.514 163.196,235.269 167.371 C 241.813 171.416,254.118 166.349,262.614 156.112 C 271.110 145.876,295.119 137.500,315.968 137.500 C 353.268 137.500,353.507 137.906,330.913 162.872 C 290.075 207.998,218.032 193.768,214.401 139.858 C 210.525 82.303,253.808 26.695,260.312 80.874 C 262.586 99.817,255.350 124.682,243.873 137.364 M185.565 262.534 C 187.462 294.695,180.839 314.654,162.872 330.913 C 137.906 353.507,137.500 353.268,137.500 315.968 C 137.500 295.119,145.876 271.110,156.112 262.614 C 166.349 254.118,171.416 241.813,167.371 235.269 C 163.165 228.463,150.767 231.743,138.400 242.936 C 102.636 275.301,39.340 269.998,69.087 237.128 C 111.059 190.749,182.245 206.276,185.565 262.534 M330.913 237.128 C 360.660 269.998,297.364 275.301,261.600 242.936 C 249.233 231.743,236.835 228.463,232.629 235.269 C 228.584 241.813,233.651 254.118,243.888 262.614 C 254.124 271.110,262.500 295.119,262.500 315.968 C 262.500 353.268,262.094 353.507,237.128 330.913 C 190.749 288.941,206.276 217.755,262.534 214.435 C 294.695 212.538,314.654 219.161,330.913 237.128 " stroke="none" fill="#000000" fill-rule="evenodd"></path></g></svg>