<?xml version="1.0" standalone="no"?><?xml-stylesheet href="main.css" type="text/css"?>
<!DOCTYPE svg PUBLIC "-//W3C//DTD SVG 1.1//EN" "http://www.w3.org/Graphics/SVG/1.1/DTD/svg11.dtd">
<svg version="1.1" xmlns="http://www.w3.org/2000/svg" width="32pt" height="32pt" viewBox="0 0 32 32" preserveAspectRatio="xMidYMid meet">
<g transform="translate(0,32) scale(0.1,-0.1)">
<path d="M90 275 l0 -45 -45 0 c-25 0 -45 -3 -45 -7 0 -4 12 -20 27 -35 l27 -28 -27 -28 c-15 -15 -27 -31 -27 -35 0 -4 20 -7 45 -7 l45 0 0 -45 c0 -25 3
-45 7 -45 4 0 20 12 35 27 l28 27 28 -27 c15 -15 31 -27 35 -27 4 0 7 20 7 45 l0 45 45 0 c25 0 45 3 45 7 0 4 -12 20 -27 35 l-27 28 27 28 c15 15 27 31 27
35 0 4 -20 7 -45 7 l-45 0 0 45 c0 25 -3 45 -7 45 -4 0 -20 -12 -35 -27 l-28 -27 -28 27 c-15 15 -31 27 -35 27 -4 0 -7 -20 -7 -45z m58 -65 c-2 -34 -4 -36
-38 -38 -26 -2 -42 3 -55 18 -18 20 -18 20 10 20 16 0 36 -7 46 -16 10 -9 20 -11 23 -6 3 5 -1 15 -9 22 -8 7 -15 26 -15 43 0 30 0 30 20 12 15 -13 20 -29
18 -55z m47 0 c-9 -10 -12 -21 -7 -24 5 -3 15 1 22 9 7 8 26 15 43 15 30 0 30 0 12 -20 -13 -15 -29 -20 -55 -18 -34 2 -36 4 -38 36 -2 22 4 42 15 54 18 20
18 20 21 -7 2 -15 -4 -35 -13 -45z m-74 -7 c13 -16 12 -17 -3 -4 -10 7 -18 15 -18 17 0 8 8 3 21 -13z m99 13 c0 -2 -8 -10 -17 -17 -16 -13 -17 -12 -4 4 13
16 21 21 21 13z m-72 -106 c2 -26 -3 -42 -18 -55 -20 -18 -20 -18 -20 12 0 17 7 36 15 43 8 7 12 17 9 22 -3 5 -13 3 -23 -6 -10 -9 -30 -16 -46 -16 -28 0
-28 0 -10 20 13 15 29 20 55 18 34 -2 36 -4 38 -38z m117 20 c18 -20 18 -20 -10 -20 -16 0 -36 7 -46 16 -10 9 -20 11 -23 6 -3 -5 1 -15 9 -22 8 -7 15 -26
15 -43 0 -30 0 -30 -20 -12 -15 13 -20 29 -18 55 2 34 4 36 38 38 26 2 42 -3 55 -18z m-135 -4 c0 -2 -8 -10 -17 -17 -16 -13 -17 -12 -4 4 13 16 21 21 21
13z m81 -13 c13 -16 12 -17 -3 -4 -10 7 -18 15 -18 17 0 8 8 3 21 -13z"/>
</g><style type="text/css">svg{fill:red;}</style></svg>